<svg xmlns="http://www.w3.org/2000/svg" xmlns:xlink="http://www.w3.org/1999/xlink" width="64" height="64" viewBox="0 0 14.97 14.97"><defs><linearGradient id="a"><stop offset="0" stop-color="#2c89a0"/><stop offset="1" stop-color="#37abc8"/></linearGradient><linearGradient xlink:href="#a" id="b" x1="8.12" y1="13" x2="6.72" y2="1.01" gradientUnits="userSpaceOnUse"/><filter id="c" x="-.05" width="1.1" y="-.07" height="1.15" color-interpolation-filters="sRGB"><feGaussianBlur stdDeviation=".26"/></filter></defs><path fill="url(#b)" d="M0 0h14.97v14.97H0z"/><path d="M4.3 4.05l-.2.82 4.11.93-4.18 1.3.58 1.87a55.12 55.12 0 00-4.44 2.06l-.28 1.65c1.51-.77 3.4-1.72 5.12-2.42l.47 1.52 7.23-2.24-1.45-4.69-1.44.45-5.53-1.25z" color="#000" opacity=".3" fill="#2a2a2a" filter="url(#c)"/><path d="M4.13 3.53l-.19.82 4.1.93-4.18 1.3.58 1.87A55.12 55.12 0 000 10.51v1.51a61.29 61.29 0 014.84-2.28l.48 1.52 7.23-2.24-1.46-4.69-1.44.45-5.52-1.25z" color="#000" fill="#fff"/></svg>