<svg xmlns="http://www.w3.org/2000/svg" viewBox="0 0 76.385 11.44" height="43.237" width="288.698"><path d="M.682 7.5c2.802 1.092 6.088 1.176 8.09-.673-.973 5.32 4.016 4.37 4.277.29-.147 3.998 5.15 5.003 3.64-.82 4.067 3.133 8.117 1.775 6.887.005-1.703-2.453-6.59 2.242-2.94 3.807 2.65 1.137 4.49-.577 5.967-2.527 2.485-3.28 3.428-6.065 1.74-6.486s-2.793 5.384-1.38 8.397c.828 1.766 4.176 1.176 3.42-2.97.77 1.514 1.754 1.525 2.844.606-1.374 5.13 3.515 3.568 3.765.056.028 3.595 4.097 5.19 3.726-.4 1.013 1.672 2.15 3.467 3.574.4 0 5.017 2.373 1.712 3.034.225.896 1.008 1.272 1.596 1.272 3.26 0-1.928 2.01-3.932 3.54-3.068 2.77 1.56 4.925-.244 4.217-1.478-1.285-2.24-5.284 1.683-3.218 3.573 3.962 3.626 10.002-2.904 18.674-5.264" fill="none" stroke="#000" stroke-width="1.346" stroke-linecap="round" stroke-linejoin="round" paint-order="normal"/><circle r=".756" cy="4.712" cx="44.622"/><path d="M67.964 0l-.184.82 4.104.93-4.184 1.3 1.455 4.683 7.23-2.246L74.93.803l-1.44.447z"/></svg>
