<svg xmlns="http://www.w3.org/2000/svg" xmlns:xlink="http://www.w3.org/1999/xlink" width="1800" height="1080" viewBox="0 0 476.25 285.75"><defs><linearGradient id="a"><stop offset="0" stop-color="#2c89a0"/><stop offset="1" stop-color="#37abc8"/></linearGradient><linearGradient xlink:href="#a" id="b" x1="216.49" y1="68.98" x2="252.28" y2="335.33" gradientUnits="userSpaceOnUse" gradientTransform="translate(-476.25 -308.25)"/><filter id="d" x="-.01" width="1.03" y="-.09" height="1.18" color-interpolation-filters="sRGB"><feGaussianBlur stdDeviation="1.83"/></filter><mask maskUnits="userSpaceOnUse" id="c"><path transform="rotate(5.85)" fill="#2e889e" stroke-width=".4" stroke-linecap="round" stroke-linejoin="round" d="M0 11.25h476.25V297H0z"/></mask></defs><path transform="rotate(180 0 -5.62)" fill="url(#b)" d="M-476.25-297H0v285.75h-476.25z"/><text style="line-height:1.25" x="83.91" y="219.14" font-weight="400" font-size="10.58" font-family="sans-serif" letter-spacing="0" word-spacing="0" stroke-width=".26" transform="translate(0 -11.25)"/><text style="line-height:1.25" x="-21.23" y="26.6" transform="rotate(-5.85 -110.15 -5.62)" mask="url(#c)" font-weight="400" font-size="15.99" font-family="sans-serif" letter-spacing="0" word-spacing="0" fill="#2c89a0" stroke-width=".4"><tspan x="-21.23" y="26.6">01001111111000010</tspan><tspan x="-21.23" y="46.59">0011000111100010100010110110100101010</tspan><tspan x="-21.23" y="66.58">1000011011000100100111000010000010100101001100010</tspan><tspan x="-21.23" y="86.58">0110010001111000110100110001001000111101011011001</tspan><tspan x="-21.23" y="106.57">1000000011000110001110000101010011001000100000010</tspan><tspan x="-21.23" y="126.57">0100010101100001111010000111101100111100001011001</tspan><tspan x="-21.23" y="146.56">110000000101000110111000101000000110001011100011</tspan><tspan x="-21.23" y="166.55">001001010110110100110000100100011100000111001010</tspan><tspan x="-21.23" y="186.55">100001100011001110111000101111100010101000011110</tspan><tspan x="-21.23" y="206.54">111100100111011011010001100111101110110000011001</tspan><tspan x="-21.23" y="226.53">000011101001001001011100110101110111010101011110</tspan><tspan x="-21.23" y="246.53">00000110111110100100000001110111101001001001001</tspan><tspan x="-21.23" y="266.52">00100011011000010000111001000001010101010000101</tspan><tspan x="-21.23" y="286.51">10110110101001010011010001010011011110111010110</tspan><tspan x="-21.23" y="306.51">00100111010111110111100101010110011110101111001</tspan><tspan x="-21.23" y="326.5">11000000111111110100000010101111011101111001110</tspan><tspan x="-21.23" y="346.49">0000101100011100111001110000100010010100010011</tspan></text><text style="line-height:1.25" x="42.21" y="189.21" font-weight="400" font-size="16.27" font-family="sans-serif" letter-spacing="0" word-spacing="0" fill="#fff" stroke-width=".41" transform="translate(0 -11.25)"><tspan x="42.21" y="189.21">Webwire is a <tspan style="-inkscape-font-specification:'sans-serif, Bold';font-variant-ligatures:normal;font-variant-caps:normal;font-variant-numeric:normal;font-feature-settings:normal;text-align:start" font-weight="700">contract-first API system</tspan> which</tspan><tspan x="42.21" y="209.54">features an <tspan style="-inkscape-font-specification:'sans-serif, Bold';font-variant-ligatures:normal;font-variant-caps:normal;font-variant-numeric:normal;font-feature-settings:normal;text-align:start" font-weight="700">interface description language</tspan>,</tspan><tspan x="42.21" y="229.88"><tspan style="-inkscape-font-specification:'sans-serif, Bold';font-variant-ligatures:normal;font-variant-caps:normal;font-variant-numeric:normal;font-feature-settings:normal;text-align:start" font-weight="700">bidirectional RPC </tspan>and <tspan style="-inkscape-font-specification:'sans-serif, Bold';font-variant-ligatures:normal;font-variant-caps:normal;font-variant-numeric:normal;font-feature-settings:normal;text-align:start" font-weight="700">code generation</tspan> for</tspan><tspan x="42.21" y="250.21">servers and clients.</tspan></text><path d="M317 59.4l-.76 3.42 17.14 3.88-17.47 5.43 2.42 7.81c-12.54 5.03-23.47 11.33-32.84 15.8-6.34 3.03-11.96 5.18-16.64 5.7-4.68.51-8.3-.36-11.86-3.62-.72-.65-.48-1.45-.7-2.15 3.84.73 7.45.66 10.17-.74a10.23 10.23 0 004.74-4.74 7.32 7.32 0 00-.23-6.62 8.39 8.39 0 00-8.46-4.1c-3.06.48-5.77 2.24-7.98 4.54-1.22 1.27-1.68 3.06-2.49 4.65-4.4-2.32-9.4-.67-12.81 2.44-.97.88-1.6 2.11-2.38 3.2-1-2.05-2.24-3.92-3.94-5.83a2.81 2.81 0 00-4.66.73 30.64 30.64 0 01-2.86 4.93 14.37 14.37 0 01-3.3 3.45c-.38-.69-1.13-3.28-1.13-8.18a2.81 2.81 0 00-5.36-1.18c-1.38 2.98-2.67 4.53-3.36 5.04-.7.51-.52.41-1.01.18-1-.47-3.5-3.7-5.61-7.17a2.81 2.81 0 00-5.2 1.65c.36 5.5-.46 8.97-1.4 10.64-.96 1.68-1.55 1.76-2.53 1.61-1.95-.3-5.97-4.34-6.02-10.8a2.81 2.81 0 00-5.62-.17c-.43 6.07-5.3 10.36-8.08 10.85-1.4.24-1.84.13-2.45-1.04-.6-1.16-1-4.13.33-9.12a2.81 2.81 0 00-4.53-2.87c-1.95 1.65-3.35 2.05-4.17 1.92-.83-.14-2-.84-3.39-3.57a2.81 2.81 0 00-5.27 1.77c1.44 7.92-.97 11.29-3.2 12.47-2.24 1.17-4.71.5-5.77-1.77-.75-1.6-.95-3.86-1.35-5.92 4.95-6.66 8.66-12.9 10.17-18.1.78-2.73 1.09-5.24.39-7.6a7.5 7.5 0 00-5.31-4.98 6.15 6.15 0 00-4.74.87 10.1 10.1 0 00-3.06 3.38c-1.62 2.7-2.7 6.21-3.38 10.15-.82 4.68-.78 9.81-.15 14.81-2.7 3.38-5.52 6.59-8.58 8.25-3.47 1.89-7 2.4-11.86.33-2.84-1.22-3.5-2.45-3.67-3.82 3.25.72 6.47 1.29 9.1.96 3.33-.4 6.15-1.5 7.98-3.7 1.82-2.22 1.87-5.78.08-8.36a9.78 9.78 0 00-9.89-3.92c-3.46.65-6.6 2.66-9.01 5.27-.71.78-1.19 1.73-1.75 2.61-2.83-1.14-5.7-2.28-8.7-4.6a2.81 2.81 0 00-4.45 2.93c1.49 5.71 1.15 9.42.34 11.33-.81 1.9-1.71 2.27-3.02 2.24-2.61-.05-7.25-3.65-6.99-10.75a2.81 2.81 0 00-5.61-.28c-.48 7.4-5.29 11.28-8.26 11.49-1.48.1-2.5-.28-3.42-1.94-.93-1.66-1.56-4.93-.61-10.08a2.81 2.81 0 00-4.68-2.57c-7.2 6.65-19.8 6.57-30.85 2.26A2.81 2.81 0 1035 93.33c10.41 4.06 22.41 4.76 31.69-.28 0 3.2.39 6.06 1.59 8.19a9.34 9.34 0 008.72 4.8c4.1-.3 7.83-3.08 10.37-7.25 2.33 4.04 5.95 6.72 9.97 6.8a9.02 9.02 0 008.31-5.66c1.03-2.4 1.12-5.6.77-9.21 1.67.95 3.33 1.97 4.96 2.63-.08.58-.37 1.1-.35 1.7.17 3.66 2.73 7.23 7.22 9.15 6.22 2.66 12.06 1.98 16.74-.56 3-1.63 5.08-4.44 7.38-6.98.37 1.16.36 2.5.86 3.57 2.4 5.12 8.65 6.9 13.47 4.35 3.39-1.78 5.17-6.08 5.76-11.4.84.5 1.62 1.15 2.59 1.3 1.15.19 2.23-.13 3.32-.41-.23 2.93-.07 5.54.96 7.53 1.65 3.18 5.28 4.53 8.4 3.99 3.86-.68 7.07-3.77 9.49-7.74 1.9 4.08 4.6 7.29 8.42 7.87 3.09.48 6.46-1.2 8.26-4.38.82-1.44.6-4.24.96-6.24 1.13 1.36 2.32 2.66 4 3.44 1.95.91 4.7.72 6.7-.75.4-.3.65-1.07 1.02-1.42.3 1.3.17 3.41.77 4.38a5.55 5.55 0 003.62 2.57c1.5.25 2.82-.23 3.87-.83 2.1-1.2 3.68-3.08 5.12-5.1.48-.66.72-1.28 1.14-1.96 1.4 2.06 2.22 4.12 2.22 8.52a2.81 2.81 0 005.62 0c0-3.05 1.75-6.57 4.08-8.7 2.33-2.13 4.58-2.75 6.51-1.66.2.1.38.06.57.17-.15 2.88.62 5.94 3.1 8.2 4.7 4.31 10.43 5.7 16.26 5.06 5.84-.64 11.9-3.08 18.46-6.2 9.55-4.57 20.2-10.65 32.09-15.48l1.97 6.35 30.2-9.38-6.08-19.56-6.01 1.86zm-166.22 7.27l.08.02c1 .25 1.06.39 1.28 1.13.22.74.21 2.32-.4 4.44-.69 2.36-3.46 6.21-5.42 9.54.1-1.75-.04-3.58.24-5.19.61-3.47 1.64-6.48 2.68-8.23a5.19 5.19 0 011.33-1.57l.2-.14zm68.74 9.24a3.16 3.16 0 00-3.15 3.16 3.16 3.16 0 003.15 3.16 3.16 3.16 0 003.16-3.16 3.16 3.16 0 00-3.16-3.16zm44.73 9.03c.74 0 1.2.31 1.84 1.43.28.5.29.84 0 1.48a4.84 4.84 0 01-2.21 2.08c-1.51.78-3.89.85-6.6.35.49-.82.63-1.67 1.3-2.37 1.56-1.61 3.5-2.68 4.8-2.89.34-.05.62-.08.87-.08zm-137.88.64c1.18 0 2.07.46 2.95 1.73.78 1.12.64 1.05.2 1.57-.43.52-1.93 1.42-4.32 1.71-1.65.2-4.04-.3-6.3-.71.16-.21.1-.41.27-.6 1.68-1.83 4.02-3.21 5.91-3.57.47-.08.9-.13 1.3-.13z" style="line-height:normal;font-variant-ligatures:normal;font-variant-position:normal;font-variant-caps:normal;font-variant-numeric:normal;font-variant-alternates:normal;font-feature-settings:normal;text-indent:0;text-align:start;text-decoration-line:none;text-decoration-style:solid;text-decoration-color:#000;text-transform:none;text-orientation:mixed;white-space:normal;shape-padding:0;isolation:auto;mix-blend-mode:normal;solid-color:#000;solid-opacity:1" transform="matrix(1.22711 0 0 1.22711 -41.92 -9.52)" color="#000" font-weight="400" font-family="sans-serif" overflow="visible" opacity=".2" filter="url(#d)" enable-background="accumulate"/><path style="line-height:normal;font-variant-ligatures:normal;font-variant-position:normal;font-variant-caps:normal;font-variant-numeric:normal;font-variant-alternates:normal;font-feature-settings:normal;text-indent:0;text-align:start;text-decoration-line:none;text-decoration-style:solid;text-decoration-color:#000;text-transform:none;text-orientation:mixed;white-space:normal;shape-padding:0;isolation:auto;mix-blend-mode:normal;solid-color:#000;solid-opacity:1" d="M344.32 58.52l-.95 4.2 21.04 4.76-21.45 6.67 2.98 9.58c-15.4 6.17-28.8 13.9-40.3 19.39-7.78 3.71-14.67 6.35-20.42 6.98-5.74.64-10.19-.43-14.56-4.43-.87-.8-.58-1.78-.85-2.63 4.71.88 9.14.8 12.47-.91a12.56 12.56 0 005.83-5.82 8.99 8.99 0 00-.3-8.13 10.3 10.3 0 00-10.37-5.03c-3.75.59-7.08 2.75-9.8 5.57-1.5 1.56-2.05 3.76-3.05 5.71-5.4-2.85-11.54-.82-15.72 3-1.19 1.08-1.96 2.58-2.91 3.93a30.95 30.95 0 00-4.84-7.16 3.45 3.45 0 00-5.72.89 37.6 37.6 0 01-3.52 6.05c-1.44 2.02-3.14 3.7-4.03 4.23-.47-.84-1.4-4.02-1.4-10.03a3.45 3.45 0 00-6.58-1.45c-1.7 3.65-3.27 5.56-4.12 6.18-.86.63-.63.51-1.24.22-1.23-.57-4.3-4.53-6.88-8.8a3.45 3.45 0 00-6.39 2.03c.45 6.76-.55 11-1.72 13.06-1.16 2.05-1.9 2.16-3.09 1.97-2.4-.36-7.34-5.33-7.4-13.24a3.45 3.45 0 00-6.88-.22c-.53 7.45-6.5 12.72-9.92 13.31-1.71.3-2.27.16-3-1.27-.74-1.43-1.24-5.07.4-11.19a3.45 3.45 0 00-5.56-3.52c-2.4 2.02-4.11 2.51-5.13 2.35-1.01-.16-2.44-1.03-4.15-4.38a3.45 3.45 0 00-6.47 2.18c1.78 9.71-1.18 13.85-3.93 15.3-2.75 1.44-5.77.6-7.08-2.17-.91-1.96-1.16-4.74-1.65-7.27 6.08-8.18 10.63-15.84 12.47-22.22.97-3.34 1.35-6.42.49-9.32a9.2 9.2 0 00-6.52-6.1 7.55 7.55 0 00-5.82 1.06 12.39 12.39 0 00-3.75 4.15c-1.99 3.32-3.3 7.62-4.15 12.46-1 5.74-.96 12.03-.18 18.17-3.3 4.14-6.78 8.08-10.53 10.12-4.26 2.31-8.6 2.95-14.55.4-3.49-1.5-4.3-3-4.5-4.68 3.98.88 7.94 1.58 11.17 1.18 4.07-.5 7.54-1.84 9.78-4.56 2.24-2.7 2.3-7.08.1-10.25-2.92-4.2-7.88-5.6-12.13-4.8-4.25.8-8.11 3.25-11.07 6.47-.87.94-1.45 2.11-2.15 3.2-3.46-1.4-6.97-2.8-10.68-5.66a3.45 3.45 0 00-5.44 3.6c1.82 7.02 1.4 11.57.4 13.9-.99 2.35-2.09 2.8-3.7 2.76-3.2-.06-8.9-4.48-8.57-13.2a3.45 3.45 0 00-6.89-.34c-.58 9.07-6.49 13.84-10.13 14.1-1.82.13-3.06-.35-4.2-2.38-1.15-2.03-1.9-6.05-.75-12.37a3.45 3.45 0 00-5.74-3.15c-8.84 8.16-24.3 8.06-37.86 2.77a3.45 3.45 0 10-2.5 6.42c12.77 4.99 27.5 5.84 38.88-.35 0 3.93.48 7.44 1.95 10.06a11.46 11.46 0 0010.71 5.88c5.03-.36 9.6-3.77 12.73-8.89 2.86 4.96 7.3 8.25 12.23 8.35 4.12.09 8.3-2.5 10.2-6.95 1.25-2.95 1.37-6.88.94-11.3 2.05 1.16 4.09 2.42 6.08 3.23-.09.7-.45 1.35-.42 2.09.2 4.48 3.34 8.86 8.85 11.22v-.01c7.63 3.27 14.8 2.44 20.55-.68 3.68-2 6.23-5.45 9.06-8.56.45 1.42.43 3.08 1.05 4.38 2.94 6.28 10.61 8.45 16.53 5.34 4.16-2.19 6.34-7.47 7.07-13.99 1.03.61 1.99 1.4 3.17 1.6 1.42.22 2.75-.17 4.08-.52-.29 3.6-.08 6.8 1.18 9.24 2.02 3.9 6.47 5.57 10.3 4.9 4.75-.83 8.68-4.62 11.65-9.5 2.33 5.01 5.64 8.95 10.33 9.67 3.8.58 7.93-1.49 10.14-5.39 1-1.76.73-5.2 1.18-7.65 1.38 1.67 2.85 3.27 4.9 4.22a8.44 8.44 0 008.23-.92c.49-.36.8-1.3 1.24-1.74.38 1.59.21 4.19.95 5.37a6.81 6.81 0 004.44 3.16c1.84.3 3.46-.28 4.75-1.01 2.6-1.48 4.52-3.8 6.29-6.26.59-.82.88-1.58 1.4-2.41 1.72 2.52 2.72 5.05 2.72 10.46a3.45 3.45 0 006.9 0c0-3.75 2.15-8.07 5-10.68 2.86-2.62 5.63-3.38 8-2.05.24.14.45.09.7.22-.19 3.53.76 7.3 3.79 10.06 5.77 5.3 12.8 7 19.96 6.21 7.17-.8 14.6-3.78 22.65-7.62 11.72-5.6 24.78-13.06 39.38-18.98l2.42 7.79 37.05-11.51-7.45-24-7.39 2.28zm-204 8.93c.03-.02.04 0 .1.03 1.23.3 1.32.47 1.59 1.38.27.9.25 2.84-.5 5.44-.84 2.9-4.25 7.63-6.65 11.71.12-2.15-.04-4.39.3-6.37.75-4.26 2-7.95 3.29-10.1a6.37 6.37 0 011.63-1.92l.25-.17zm84.37 11.34a3.87 3.87 0 00-3.87 3.87 3.87 3.87 0 003.87 3.88 3.87 3.87 0 003.87-3.88 3.87 3.87 0 00-3.87-3.87zm54.88 11.07c.91 0 1.47.39 2.26 1.76.35.6.36 1.03 0 1.82a5.94 5.94 0 01-2.71 2.55c-1.85.95-4.77 1.05-8.1.42.6-1 .78-2.05 1.6-2.9 1.9-1.98 4.28-3.3 5.9-3.54.4-.07.75-.11 1.05-.11zm-169.19.79c1.45 0 2.54.56 3.62 2.13.95 1.37.78 1.28.25 1.92-.53.64-2.37 1.74-5.3 2.1-2.03.25-4.96-.37-7.74-.88.2-.25.12-.5.34-.74 2.06-2.24 4.93-3.93 7.25-4.36.58-.11 1.1-.17 1.58-.17z" color="#000" font-weight="400" font-family="sans-serif" overflow="visible" fill="#fff" enable-background="accumulate"/></svg>